<mxfile host="app.diagrams.net" agent="Mozilla/5.0 (Windows NT 10.0; Win64; x64) AppleWebKit/537.36 (KHTML, like Gecko) Chrome/129.0.0.0 Safari/537.36 Edg/129.0.0.0" version="24.7.17">
  <diagram name="1 oldal" id="2mXK1F-Tn3lGEFU_QQPa">
    <mxGraphModel dx="1681" dy="466" grid="1" gridSize="10" guides="1" tooltips="1" connect="1" arrows="1" fold="1" page="1" pageScale="1" pageWidth="827" pageHeight="1169" math="0" shadow="0">
      <root>
        <mxCell id="0" />
        <mxCell id="1" parent="0" />
        <mxCell id="oPI0P3m7_QHd4OF3LjwJ-4" value="" style="edgeStyle=orthogonalEdgeStyle;rounded=0;orthogonalLoop=1;jettySize=auto;html=1;startArrow=classic;startFill=1;endArrow=none;endFill=0;" edge="1" parent="1" source="oPI0P3m7_QHd4OF3LjwJ-1" target="oPI0P3m7_QHd4OF3LjwJ-3">
          <mxGeometry relative="1" as="geometry" />
        </mxCell>
        <mxCell id="oPI0P3m7_QHd4OF3LjwJ-1" value="Felhasználó" style="rounded=0;whiteSpace=wrap;html=1;fillColor=#e1d5e7;strokeColor=#9673a6;" vertex="1" parent="1">
          <mxGeometry x="70" y="220" width="120" height="60" as="geometry" />
        </mxCell>
        <mxCell id="oPI0P3m7_QHd4OF3LjwJ-2" value="Profil" style="rounded=0;whiteSpace=wrap;html=1;fillColor=#e1d5e7;strokeColor=#9673a6;" vertex="1" parent="1">
          <mxGeometry x="440" y="220" width="120" height="60" as="geometry" />
        </mxCell>
        <mxCell id="oPI0P3m7_QHd4OF3LjwJ-3" value="Belépés" style="rhombus;whiteSpace=wrap;html=1;fillColor=#eeeeee;strokeColor=#36393d;rounded=0;" vertex="1" parent="1">
          <mxGeometry x="270" y="200" width="100" height="100" as="geometry" />
        </mxCell>
        <mxCell id="oPI0P3m7_QHd4OF3LjwJ-5" value="" style="endArrow=classic;html=1;rounded=0;entryX=0;entryY=0.5;entryDx=0;entryDy=0;exitX=1;exitY=0.5;exitDx=0;exitDy=0;" edge="1" parent="1" source="oPI0P3m7_QHd4OF3LjwJ-3" target="oPI0P3m7_QHd4OF3LjwJ-2">
          <mxGeometry width="50" height="50" relative="1" as="geometry">
            <mxPoint x="390" y="270" as="sourcePoint" />
            <mxPoint x="440" y="220" as="targetPoint" />
          </mxGeometry>
        </mxCell>
        <mxCell id="oPI0P3m7_QHd4OF3LjwJ-6" value="" style="endArrow=none;html=1;rounded=0;entryX=0.5;entryY=0;entryDx=0;entryDy=0;exitX=0.5;exitY=1;exitDx=0;exitDy=0;" edge="1" parent="1" source="oPI0P3m7_QHd4OF3LjwJ-7" target="oPI0P3m7_QHd4OF3LjwJ-2">
          <mxGeometry width="50" height="50" relative="1" as="geometry">
            <mxPoint x="500" y="150" as="sourcePoint" />
            <mxPoint x="440" y="220" as="targetPoint" />
          </mxGeometry>
        </mxCell>
        <mxCell id="oPI0P3m7_QHd4OF3LjwJ-7" value="Felhasználónév" style="ellipse;whiteSpace=wrap;html=1;fillColor=#bac8d3;strokeColor=#23445d;" vertex="1" parent="1">
          <mxGeometry x="450" y="90" width="100" height="60" as="geometry" />
        </mxCell>
        <mxCell id="oPI0P3m7_QHd4OF3LjwJ-8" value="" style="endArrow=none;html=1;rounded=0;entryX=0.5;entryY=0;entryDx=0;entryDy=0;" edge="1" parent="1" target="oPI0P3m7_QHd4OF3LjwJ-2">
          <mxGeometry width="50" height="50" relative="1" as="geometry">
            <mxPoint x="620" y="140" as="sourcePoint" />
            <mxPoint x="440" y="220" as="targetPoint" />
          </mxGeometry>
        </mxCell>
        <mxCell id="oPI0P3m7_QHd4OF3LjwJ-9" value="jelszó" style="ellipse;whiteSpace=wrap;html=1;fillColor=#bac8d3;strokeColor=#23445d;" vertex="1" parent="1">
          <mxGeometry x="570" y="90" width="100" height="60" as="geometry" />
        </mxCell>
        <mxCell id="oPI0P3m7_QHd4OF3LjwJ-10" value="" style="endArrow=none;html=1;rounded=0;entryX=0.5;entryY=0;entryDx=0;entryDy=0;exitX=0.5;exitY=1;exitDx=0;exitDy=0;" edge="1" parent="1" source="oPI0P3m7_QHd4OF3LjwJ-11" target="oPI0P3m7_QHd4OF3LjwJ-2">
          <mxGeometry width="50" height="50" relative="1" as="geometry">
            <mxPoint x="410" y="150" as="sourcePoint" />
            <mxPoint x="440" y="220" as="targetPoint" />
          </mxGeometry>
        </mxCell>
        <mxCell id="oPI0P3m7_QHd4OF3LjwJ-11" value="&lt;u&gt;email&lt;/u&gt;" style="ellipse;whiteSpace=wrap;html=1;fillColor=#bac8d3;strokeColor=#23445d;" vertex="1" parent="1">
          <mxGeometry x="340" y="90" width="100" height="60" as="geometry" />
        </mxCell>
        <mxCell id="oPI0P3m7_QHd4OF3LjwJ-12" value="" style="endArrow=none;html=1;rounded=0;entryX=0.5;entryY=1;entryDx=0;entryDy=0;" edge="1" parent="1" target="oPI0P3m7_QHd4OF3LjwJ-1">
          <mxGeometry width="50" height="50" relative="1" as="geometry">
            <mxPoint x="130" y="350" as="sourcePoint" />
            <mxPoint x="440" y="220" as="targetPoint" />
          </mxGeometry>
        </mxCell>
        <mxCell id="oPI0P3m7_QHd4OF3LjwJ-13" value="születési idő" style="ellipse;whiteSpace=wrap;html=1;fillColor=#bac8d3;strokeColor=#23445d;" vertex="1" parent="1">
          <mxGeometry x="80" y="340" width="100" height="60" as="geometry" />
        </mxCell>
        <mxCell id="oPI0P3m7_QHd4OF3LjwJ-14" value="" style="endArrow=none;html=1;rounded=0;entryX=0.5;entryY=1;entryDx=0;entryDy=0;" edge="1" parent="1" target="oPI0P3m7_QHd4OF3LjwJ-1">
          <mxGeometry width="50" height="50" relative="1" as="geometry">
            <mxPoint x="240" y="360" as="sourcePoint" />
            <mxPoint x="440" y="220" as="targetPoint" />
          </mxGeometry>
        </mxCell>
        <mxCell id="oPI0P3m7_QHd4OF3LjwJ-15" value="név" style="ellipse;whiteSpace=wrap;html=1;fillColor=#bac8d3;strokeColor=#23445d;" vertex="1" parent="1">
          <mxGeometry x="200" y="340" width="100" height="60" as="geometry" />
        </mxCell>
        <mxCell id="oPI0P3m7_QHd4OF3LjwJ-16" value="" style="endArrow=none;html=1;rounded=0;entryX=0.5;entryY=1;entryDx=0;entryDy=0;" edge="1" parent="1" target="oPI0P3m7_QHd4OF3LjwJ-1">
          <mxGeometry width="50" height="50" relative="1" as="geometry">
            <mxPoint x="30" y="360" as="sourcePoint" />
            <mxPoint x="140" y="290" as="targetPoint" />
          </mxGeometry>
        </mxCell>
        <mxCell id="oPI0P3m7_QHd4OF3LjwJ-17" value="&lt;u&gt;email&lt;/u&gt;" style="ellipse;whiteSpace=wrap;html=1;fillColor=#bac8d3;strokeColor=#23445d;" vertex="1" parent="1">
          <mxGeometry x="-40" y="340" width="100" height="60" as="geometry" />
        </mxCell>
        <mxCell id="oPI0P3m7_QHd4OF3LjwJ-18" value="&lt;font style=&quot;font-size: 24px;&quot;&gt;1:1-es kapcsolat&lt;/font&gt;" style="text;html=1;align=center;verticalAlign=middle;whiteSpace=wrap;rounded=0;" vertex="1" parent="1">
          <mxGeometry x="20" y="90" width="240" height="30" as="geometry" />
        </mxCell>
      </root>
    </mxGraphModel>
  </diagram>
</mxfile>
